# Blender 5.2.0 LTS
# www.blender.org
mtllib cat1x.mtl
g 立方体_立方体
v -0.790126 -0.316069 0.952647
v -0.790126 -0.316069 2.590317
v -0.790126 1.309950 0.952647
v -0.790126 1.309950 2.590317
v 0.817546 -0.316069 0.952647
v 0.817546 -0.316069 2.590317
v 0.817546 1.309950 0.952647
v 0.817546 1.309950 2.590317
s 0
g 立方体_材质.002
usemtl 材质.002
f 2 3 1
f 4 7 3
f 8 5 7
f 6 1 5
f 7 1 3
f 4 6 8
f 2 4 3
f 4 8 7
f 8 6 5
f 6 2 1
f 7 5 1
f 4 2 6
g 立方体.008_立方体.008
v 0.148109 0.429320 3.126076
v 0.148109 0.429320 2.788043
v 0.148109 0.132236 3.126076
v 0.148109 0.132236 2.788043
v -0.189938 0.429320 3.126076
v -0.189938 0.429320 2.788043
v -0.189938 0.132236 3.126076
v -0.189938 0.132236 2.788043
s 0
g 立方体.008_材质.008
usemtl 材质.008
f 15 11 9
f 15 9 13
g 立方体.010_立方体.010
v -0.610868 0.898365 2.557704
v -0.610868 0.898365 2.690317
v -0.610868 0.511629 2.557704
v -0.610868 0.511629 2.690317
v -0.170808 0.898365 2.557704
v -0.170808 0.898365 2.690317
v -0.170808 0.511629 2.557704
v -0.170808 0.511629 2.690317
s 0
g 立方体.010_材质.010
usemtl 材质.010
f 20 24 22
f 20 22 18
g 立方体.011_立方体.011
v -0.240944 0.132376 2.633125
v -0.240944 0.132376 3.084493
v -0.240944 -0.254360 2.633125
v -0.240944 -0.254360 3.084493
v 0.199115 0.132376 2.633125
v 0.199115 0.132376 3.084493
v 0.199115 -0.254360 2.633125
v 0.199115 -0.254360 3.084493
s 0
g 立方体.011_材质.011
usemtl 材质.011
f 28 32 30
f 28 30 26
g Cube_Cube
v 1.000000 1.000000 1.000000
v 1.000000 1.000000 -1.000000
v 1.000000 -1.000000 1.000000
v 1.000000 -1.000000 -1.000000
v -1.000000 1.000000 1.000000
v -1.000000 1.000000 -1.000000
v -1.000000 -1.000000 1.000000
v -1.000000 -1.000000 -1.000000
s 0
g Cube_Material
usemtl Material
f 37 35 33
f 35 40 36
f 39 38 40
f 34 40 38
f 33 36 34
f 37 34 38
f 37 39 35
f 35 39 40
f 39 37 38
f 34 36 40
f 33 35 36
f 37 33 34
g 立方体.005_立方体.005
v -0.316333 -0.208974 -2.305823
v -0.316333 -0.208974 -0.999523
v -0.316333 0.324498 -2.305823
v -0.316333 0.324498 -0.999523
v 0.267533 -0.208974 -2.305823
v 0.267533 -0.208974 -0.999523
v 0.267533 0.324498 -2.305823
v 0.267533 0.324498 -0.999523
s 0
g 立方体.005_材质.007
usemtl 材质.007
f 42 43 41
f 44 47 43
f 48 45 47
f 46 41 45
f 47 41 43
f 44 46 48
f 42 44 43
f 44 48 47
f 48 46 45
f 46 42 41
f 47 45 41
f 44 42 46
g 立方体.007_立方体.012
v 0.161283 0.898365 2.507704
v 0.161283 0.898365 2.640317
v 0.161283 0.511629 2.507704
v 0.161283 0.511629 2.640317
v 0.601343 0.898365 2.507704
v 0.601343 0.898365 2.640317
v 0.601343 0.511629 2.507704
v 0.601343 0.511629 2.640317
s 0
g 立方体.007_材质.018
usemtl 材质.018
f 52 56 54
f 52 54 50
g 锥体_锥体
v -0.115108 1.295972 1.952059
v -0.134091 1.296005 2.381377
v -0.592537 1.295972 2.406699
v -0.573554 1.296005 1.977381
v -0.353822 1.780503 2.179379
s 0
g 锥体_材质.019
usemtl 材质.019
f 57 61 58
f 58 61 59
f 59 61 60
f 60 61 57
f 60 58 59
f 60 57 58
g 锥体.001_锥体.001
v 0.620520 1.295972 1.952059
v 0.601537 1.296005 2.381377
v 0.143091 1.295972 2.406699
v 0.162074 1.296005 1.977381
v 0.381805 1.780503 2.179379
s 0
g 锥体.001_材质.020
usemtl 材质.020
f 62 66 63
f 63 66 64
f 64 66 65
f 65 66 62
f 65 63 64
f 65 62 63
g 立方体.004_leg_rb
v -0.903683 -1.979000 -0.893273
v -0.903683 -1.979000 -0.474324
v -0.903683 -1.002128 -0.893273
v -0.903683 -1.002128 -0.474324
v -0.445155 -1.979000 -0.893273
v -0.445155 -1.979000 -0.474324
v -0.445155 -1.002128 -0.893273
v -0.445155 -1.002128 -0.474324
s 0
g 立方体.004_材质.006
usemtl 材质.006
f 68 69 67
f 70 73 69
f 74 71 73
f 72 67 71
f 73 67 69
f 70 72 74
f 68 70 69
f 70 74 73
f 74 72 71
f 72 68 67
f 73 71 67
f 70 68 72
g 立方体.003_leg_rf
v -0.903683 -1.979000 0.324317
v -0.903683 -1.979000 0.743267
v -0.903683 -1.002128 0.324317
v -0.903683 -1.002128 0.743267
v -0.445155 -1.979000 0.324317
v -0.445155 -1.979000 0.743267
v -0.445155 -1.002128 0.324317
v -0.445155 -1.002128 0.743267
s 0
g 立方体.003_材质.017
usemtl 材质.017
f 76 77 75
f 78 81 77
f 82 79 81
f 80 75 79
f 81 75 77
f 78 80 82
f 76 78 77
f 78 82 81
f 82 80 79
f 80 76 75
f 81 79 75
f 78 76 80
g 立方体.001_leg_lb
v 0.405226 -1.979000 -0.893273
v 0.405226 -1.979000 -0.474324
v 0.405226 -1.002128 -0.893273
v 0.405226 -1.002128 -0.474324
v 0.863755 -1.979000 -0.893273
v 0.863755 -1.979000 -0.474324
v 0.863755 -1.002128 -0.893273
v 0.863755 -1.002128 -0.474324
s 0
g 立方体.001_材质.015
usemtl 材质.015
f 84 85 83
f 86 89 85
f 90 87 89
f 88 83 87
f 89 83 85
f 86 88 90
f 84 86 85
f 86 90 89
f 90 88 87
f 88 84 83
f 89 87 83
f 86 84 88
g 立方体.002_leg_lb.001
v 0.405226 -1.979000 0.348669
v 0.405226 -1.979000 0.767618
v 0.405226 -1.002128 0.348669
v 0.405226 -1.002128 0.767618
v 0.863755 -1.979000 0.348669
v 0.863755 -1.979000 0.767618
v 0.863755 -1.002128 0.348669
v 0.863755 -1.002128 0.767618
s 0
g 立方体.002_材质.016
usemtl 材质.016
f 92 93 91
f 94 97 93
f 98 95 97
f 96 91 95
f 97 91 93
f 94 96 98
f 92 94 93
f 94 98 97
f 98 96 95
f 96 92 91
f 97 95 91
f 94 92 96
