# Blender 5.2.0 LTS
# www.blender.org
mtllib plane.mtl
g Cube_Cube
v 0.925304 1.028553 -0.562845
v 0.925304 -0.313661 -0.562845
v 0.925304 1.028553 0.634394
v 0.925304 -0.313661 0.634394
v -0.980126 1.028553 -0.562845
v -0.980126 -0.313661 -0.562845
v -0.980126 1.028553 0.634394
v -0.980126 -0.313661 0.634394
s 0
g Cube_Material
usemtl Material
f 5 3 1
f 3 8 4
f 7 6 8
f 2 8 6
f 1 4 2
f 5 2 6
f 5 7 3
f 3 7 8
f 7 5 6
f 2 4 8
f 1 3 4
f 5 1 2
g 锥体_锥体
v 0.927242 -0.275977 -0.452960
v 0.926597 -0.317500 0.472013
v 0.925704 0.504277 0.677415
v 0.925534 0.996071 0.265602
v 0.925599 1.000283 -0.332404
v 0.925463 0.490200 -0.678070
v 2.438573 0.313042 0.004831
s 0
g 锥体_材质.003
usemtl 材质.003
f 9 15 10
f 10 15 11
f 11 15 12
f 12 15 13
f 13 15 14
f 11 13 14
f 14 15 9
f 11 12 13
f 14 9 10
f 14 10 11
g 立方体_立方体.002
v -0.398246 0.201421 -0.561020
v -0.398246 0.478050 -0.561020
v -0.398246 0.201421 -2.156844
v -0.398246 0.478050 -2.156844
v 0.444517 0.201421 -0.561020
v 0.444517 0.478050 -0.561020
v 0.444517 0.201421 -2.156844
v 0.444517 0.478050 -2.156844
s 0
g 立方体_材质.001
usemtl 材质.001
f 17 18 16
f 19 22 18
f 23 20 22
f 21 16 20
f 22 16 18
f 19 21 23
f 17 19 18
f 19 23 22
f 23 21 20
f 21 17 16
f 22 20 16
f 19 17 21
g 立方体.001_立方体.003
v -0.398246 0.201421 2.228267
v -0.398246 0.478050 2.228267
v -0.398246 0.201421 0.632443
v -0.398246 0.478050 0.632443
v 0.444517 0.201421 2.228267
v 0.444517 0.478050 2.228267
v 0.444517 0.201421 0.632443
v 0.444517 0.478050 0.632443
s 0
g 立方体.001_材质.002
usemtl 材质.002
f 25 26 24
f 27 30 26
f 31 28 30
f 29 24 28
f 30 24 26
f 27 29 31
f 25 27 26
f 27 31 30
f 31 29 28
f 29 25 24
f 30 28 24
f 27 25 29
g 立方体.002_立方体.004
v -0.983932 -0.011205 0.364318
v -2.026194 -0.011205 0.364318
v -0.983932 -0.011205 -0.292769
v -2.026194 -0.011205 -0.292769
v -0.983932 0.726097 0.364318
v -2.026194 0.726097 0.364318
v -0.983932 0.726097 -0.292769
v -2.026194 0.726097 -0.292769
s 0
g 立方体.002_材质.004
usemtl 材质.004
f 33 34 32
f 35 38 34
f 39 36 38
f 37 32 36
f 38 32 34
f 35 37 39
f 33 35 34
f 35 39 38
f 39 37 36
f 37 33 32
f 38 36 32
f 35 33 37
g 立方体.003_立方体.005
v -2.021597 -0.013907 -0.560235
v -2.021597 -0.013907 0.645080
v -2.527687 -0.013907 -0.560235
v -2.527687 -0.013907 0.645080
v -2.021597 0.723396 -0.560235
v -2.021597 0.723396 0.645080
v -2.527687 0.723396 -0.560235
v -2.527687 0.723396 0.645080
s 0
g 立方体.003_材质.005
usemtl 材质.005
f 41 42 40
f 43 46 42
f 47 44 46
f 45 40 44
f 46 40 42
f 43 45 47
f 41 43 42
f 43 47 46
f 47 45 44
f 45 41 40
f 46 44 40
f 43 41 45
g 立方体.004_立方体.006
v -0.531789 1.013851 0.378041
v -0.531789 1.590634 0.378041
v -0.531789 1.013851 -0.306491
v -0.531789 1.590634 -0.306491
v 0.512041 1.013851 0.378041
v 0.512041 1.590634 0.378041
v 0.512041 1.013851 -0.306491
v 0.512041 1.590634 -0.306491
s 0
g 立方体.004_材质
usemtl 材质
f 49 50 48
f 51 54 50
f 55 52 54
f 53 48 52
f 54 48 50
f 51 53 55
f 49 51 50
f 51 55 54
f 55 53 52
f 53 49 48
f 54 52 48
f 51 49 53
