# Blender 5.2.0 LTS
# www.blender.org
mtllib blade.mtl
g Cube_Cube
v 0.471919 1.816633 -0.539728
v 0.471919 -1.816633 -0.539728
v 0.471919 1.816633 0.539728
v 0.471919 -1.816633 0.539728
v -0.471919 1.816633 -0.539728
v -0.471919 -1.816633 -0.539728
v -0.471919 1.816633 0.539728
v -0.471919 -1.816633 0.539728
s 0
g Cube_Material
usemtl Material
f 5 3 1
f 3 8 4
f 7 6 8
f 2 8 6
f 1 4 2
f 5 2 6
f 5 7 3
f 3 7 8
f 7 5 6
f 2 4 8
f 1 3 4
f 5 1 2
g 锥体_锥体
v 0.489933 -1.830640 0.502261
v -0.489468 -1.830776 0.487458
v -0.489933 -1.830640 -0.502261
v 0.489468 -1.830776 -0.487458
v 0.000000 -3.827646 0.000000
s 0
g 锥体_材质.001
usemtl 材质.001
f 9 10 13
f 10 11 13
f 11 12 13
f 12 9 13
f 12 11 10
f 12 10 9
g 立方体_立方体
v -0.660918 1.724327 1.335430
v -0.660918 2.343399 1.335430
v -0.660918 1.724327 -1.335430
v -0.660918 2.343399 -1.335430
v 0.660918 1.724327 1.335430
v 0.660918 2.343399 1.335430
v 0.660918 1.724327 -1.335430
v 0.660918 2.343399 -1.335430
s 0
g 立方体_材质
usemtl 材质
f 15 16 14
f 17 20 16
f 21 18 20
f 19 14 18
f 20 14 16
f 17 19 21
f 15 17 16
f 17 21 20
f 21 19 18
f 19 15 14
f 20 18 14
f 17 15 19
g 立方体.001_立方体.001
v -0.157274 2.322669 0.247678
v -0.157274 3.649229 0.247678
v -0.157274 2.322669 -0.247678
v -0.157274 3.649229 -0.247678
v 0.157274 2.322669 0.247678
v 0.157274 3.649229 0.247678
v 0.157274 2.322669 -0.247678
v 0.157274 3.649229 -0.247678
s 0
g 立方体.001_材质.002
usemtl 材质.002
f 23 24 22
f 25 28 24
f 29 26 28
f 27 22 26
f 28 22 24
f 25 27 29
f 23 25 24
f 25 29 28
f 29 27 26
f 27 23 22
f 28 26 22
f 25 23 27
g 立方体.002_立方体.002
v -0.273913 3.510474 0.299995
v -0.273913 4.095735 0.299995
v -0.273913 3.510474 -0.299995
v -0.273913 4.095735 -0.299995
v 0.273913 3.510474 0.299995
v 0.273913 4.095735 0.299995
v 0.273913 3.510474 -0.299995
v 0.273913 4.095735 -0.299995
s 0
g 立方体.002_材质.003
usemtl 材质.003
f 31 32 30
f 33 36 32
f 37 34 36
f 35 30 34
f 36 30 32
f 33 35 37
f 31 33 32
f 33 37 36
f 37 35 34
f 35 31 30
f 36 34 30
f 33 31 35
