# Blender 5.2.0 LTS
# www.blender.org
mtllib robot.mtl
g Cube_Cube
v -0.868970 0.446265 0.119570
v -0.868970 -0.560424 0.119570
v 0.869635 0.446265 0.119570
v 0.869635 -0.560424 0.119570
v -0.868970 0.446265 -1.052769
v -0.868970 -0.560424 -1.052769
v 0.869635 0.446265 -1.052769
v 0.869635 -0.560424 -1.052769
s 0
g Cube_Material
usemtl Material
f 5 1 3
f 3 4 8
f 7 8 6
f 2 6 8
f 1 2 4
f 5 6 2
f 5 3 7
f 3 8 7
f 7 6 5
f 2 8 4
f 1 4 3
f 5 2 1
g 立方体_立方体
v -0.165221 -3.296465 -0.801858
v -0.165221 -1.590158 -0.801858
v -0.865072 -3.296465 -0.801858
v -0.865072 -1.590158 -0.801858
v -0.165221 -3.296465 -0.131340
v -0.165221 -1.590158 -0.131340
v -0.865072 -3.296465 -0.131340
v -0.865072 -1.590158 -0.131340
s 0
g 立方体_材质.008
usemtl 材质.008
f 10 9 11
f 12 11 15
f 16 15 13
f 14 13 9
f 15 11 9
f 12 16 14
f 10 11 12
f 12 15 16
f 16 13 14
f 14 9 10
f 15 9 13
f 12 14 10
g 立方体.001_立方体.001
v 0.876702 -3.289742 -0.801859
v 0.876702 -1.583435 -0.801859
v 0.176851 -3.289742 -0.801859
v 0.176851 -1.583435 -0.801859
v 0.876702 -3.289742 -0.131340
v 0.876702 -1.583435 -0.131340
v 0.176851 -3.289742 -0.131340
v 0.176851 -1.583435 -0.131340
s 0
g 立方体.001_材质.007
usemtl 材质.007
f 18 17 19
f 20 19 23
f 24 23 21
f 22 21 17
f 23 19 17
f 20 24 22
f 18 19 20
f 20 23 24
f 24 21 22
f 22 17 18
f 23 17 21
f 20 22 18
g 立方体.002_立方体.002
v -0.868934 -1.337557 -0.801858
v -0.868934 0.368750 -0.801858
v -1.568785 -1.337557 -0.801858
v -1.568785 0.368750 -0.801858
v -0.868934 -1.337557 -0.131340
v -0.868934 0.368750 -0.131340
v -1.568785 -1.337557 -0.131340
v -1.568785 0.368750 -0.131340
s 0
g 立方体.002_材质.004
usemtl 材质.004
f 26 25 27
f 28 27 31
f 32 31 29
f 30 29 25
f 31 27 25
f 28 32 30
f 26 27 28
f 28 31 32
f 32 29 30
f 30 25 26
f 31 25 29
f 28 30 26
g 立方体.003_立方体.003
v 1.566797 -1.337557 -0.801859
v 1.566797 0.368750 -0.801859
v 0.866946 -1.337557 -0.801859
v 0.866946 0.368750 -0.801859
v 1.566797 -1.337557 -0.131340
v 1.566797 0.368750 -0.131340
v 0.866946 -1.337557 -0.131340
v 0.866946 0.368750 -0.131340
s 0
g 立方体.003_材质.003
usemtl 材质.003
f 34 33 35
f 36 35 39
f 40 39 37
f 38 37 33
f 39 35 33
f 36 40 38
f 34 35 36
f 36 39 40
f 40 37 38
f 38 33 34
f 39 33 37
f 36 38 34
g 立方体.004_立方体.004
v 0.727986 0.449767 -1.130764
v 0.727986 1.923261 -1.130764
v -0.727321 0.449767 -1.130764
v -0.727321 1.923261 -1.130764
v 0.727986 0.449767 0.197565
v 0.727986 1.923261 0.197565
v -0.727321 0.449767 0.197565
v -0.727321 1.923261 0.197565
s 0
g 立方体.004_材质.002
usemtl 材质.002
f 42 41 43
f 44 43 47
f 48 47 45
f 46 45 41
f 47 43 41
f 44 48 46
f 42 43 44
f 44 47 48
f 48 45 46
f 46 41 42
f 47 41 45
f 44 46 42
g 立方体.005_立方体.005
v 1.109984 1.580883 -0.801859
v 1.109984 2.509001 -0.801859
v 0.750295 1.580883 -0.801859
v 0.750295 2.509001 -0.801859
v 1.109984 1.580883 -0.131340
v 1.109984 2.509001 -0.131340
v 0.750295 1.580883 -0.131340
v 0.750295 2.509001 -0.131340
s 0
g 立方体.005_材质.005
usemtl 材质.005
f 50 49 51
f 52 51 55
f 56 55 53
f 54 53 49
f 55 51 49
f 52 56 54
f 50 51 52
f 52 55 56
f 56 53 54
f 54 49 50
f 55 49 53
f 52 54 50
g 立方体.006_立方体.006
v -0.723558 1.596010 -0.801858
v -0.723558 2.524128 -0.801858
v -1.083246 1.596010 -0.801858
v -1.083246 2.524128 -0.801858
v -0.723558 1.596010 -0.131340
v -0.723558 2.524128 -0.131340
v -1.083246 1.596010 -0.131340
v -1.083246 2.524128 -0.131340
s 0
g 立方体.006_材质.006
usemtl 材质.006
f 58 57 59
f 60 59 63
f 64 63 61
f 62 61 57
f 63 59 57
f 60 64 62
f 58 59 60
f 60 63 64
f 64 61 62
f 62 57 58
f 63 57 61
f 60 62 58
g 立方体.007_立方体.007
v 0.569457 1.202427 0.194888
v 0.569457 1.519841 0.194888
v -0.568791 1.202427 0.194888
v -0.568791 1.519841 0.194888
v 0.569457 1.202427 0.435300
v 0.569457 1.519841 0.435300
v -0.568791 1.202427 0.435300
v -0.568791 1.519841 0.435300
s 0
g 立方体.007_材质
usemtl 材质
f 66 65 67
f 68 67 71
f 72 71 69
f 70 69 65
f 71 67 65
f 68 72 70
f 66 67 68
f 68 71 72
f 72 69 70
f 70 65 66
f 71 65 69
f 68 70 66
g 立方体.008_立方体.008
v 0.162453 0.674887 0.194888
v 0.162453 1.478776 0.194888
v -0.161787 0.674887 0.194888
v -0.161787 1.478776 0.194888
v 0.162453 0.674887 0.435300
v 0.162453 1.478776 0.435300
v -0.161787 0.674887 0.435300
v -0.161787 1.478776 0.435300
s 0
g 立方体.008_材质.001
usemtl 材质.001
f 74 73 75
f 76 75 79
f 80 79 77
f 78 77 73
f 79 75 73
f 76 80 78
f 74 75 76
f 76 79 80
f 80 77 78
f 78 73 74
f 79 73 77
f 76 78 74
g 立方体.009_立方体.009
v -0.719647 -1.611252 -1.032130
v -0.719647 -0.567413 -1.032130
v -0.719647 -1.611252 0.018052
v -0.719647 -0.567413 0.018052
v 0.707485 -1.611252 -1.032130
v 0.707485 -0.567413 -1.032130
v 0.707485 -1.611252 0.018052
v 0.707485 -0.567413 0.018052
s 0
g 立方体.009_材质.009
usemtl 材质.009
f 82 81 83
f 84 83 87
f 88 87 85
f 86 85 81
f 87 83 81
f 84 88 86
f 82 83 84
f 84 87 88
f 88 85 86
f 86 81 82
f 87 81 85
f 84 86 82
